<svg xmlns="http://www.w3.org/2000/svg" viewBox="0 0 11836 2288">
  <path d="M612 1854L414 1854L25 388L224 388L447 1349Q483 1500 509 1649L509 1649Q565 1414 575 1378L575 1378L854 388L1088 388L1298 1130Q1377 1406 1412 1649L1412 1649Q1440 1510 1485 1330L1485 1330L1715 388L1910 388L1508 1854L1321 1854L1012 737Q973 597 966 565L966 565Q943 666 923 737L923 737L612 1854Z"/>
  <path d="M2761 1723L2761 1723Q2661 1808 2568.5000 1843Q2476 1878 2370 1878L2370 1878Q2195 1878 2101 1792.5000Q2007 1707 2007 1574L2007 1574Q2007 1496 2042.5000 1431.5000Q2078 1367 2135.5000 1328Q2193 1289 2265 1269L2265 1269Q2318 1255 2425 1242L2425 1242Q2643 1216 2746 1180L2746 1180Q2747 1143 2747 1133L2747 1133Q2747 1023 2696 978L2696 978Q2627 917 2491 917L2491 917Q2364 917 2303.5000 961.5000Q2243 1006 2214 1119L2214 1119L2038 1095Q2062 982 2117 912.5000Q2172 843 2276 805.5000Q2380 768 2517 768L2517 768Q2653 768 2738 800Q2823 832 2863 880.5000Q2903 929 2919 1003L2919 1003Q2928 1049 2928 1169L2928 1169L2928 1409Q2928 1660 2939.5000 1726.5000Q2951 1793 2985 1854L2985 1854L2797 1854Q2769 1798 2761 1723ZM2746 1387L2746 1321Q2648 1361 2452 1389L2452 1389Q2341 1405 2295 1425Q2249 1445 2224 1483.5000Q2199 1522 2199 1569L2199 1569Q2199 1641 2253.5000 1689Q2308 1737 2413 1737L2413 1737Q2517 1737 2598 1691.5000Q2679 1646 2717 1567L2717 1567Q2746 1506 2746 1387L2746 1387Z"/>
  <path d="M3670 1854L3502 1854L3098 792L3288 792L3516 1428Q3553 1531 3584 1642L3584 1642Q3608 1558 3651 1440L3651 1440L3887 792L4072 792L3670 1854Z"/>
  <path d="M4958 1512L4958 1512L5144 1535Q5100 1698 4981 1788Q4862 1878 4677 1878L4677 1878Q4444 1878 4307.5000 1734.5000Q4171 1591 4171 1332L4171 1332Q4171 1064 4309 916Q4447 768 4667 768L4667 768Q4880 768 5015 913Q5150 1058 5150 1321L5150 1321Q5150 1337 5149 1369L5149 1369L4357 1369Q4367 1544 4456 1637Q4545 1730 4678 1730L4678 1730Q4777 1730 4847 1678Q4917 1626 4958 1512ZM4367 1221L4367 1221L4960 1221Q4948 1087 4892 1020L4892 1020Q4806 916 4669 916L4669 916Q4545 916 4460.5000 999Q4376 1082 4367 1221Z"/>
  <path d="M5298 1537L5298 1537L5476 1509Q5491 1616 5559.5000 1673Q5628 1730 5751 1730L5751 1730Q5875 1730 5935 1679.5000Q5995 1629 5995 1561L5995 1561Q5995 1500 5942 1465L5942 1465Q5905 1441 5758 1404L5758 1404Q5560 1354 5483.5000 1317.5000Q5407 1281 5367.5000 1216.5000Q5328 1152 5328 1074L5328 1074Q5328 1003 5360.5000 942.5000Q5393 882 5449 842L5449 842Q5491 811 5563.5000 789.5000Q5636 768 5719 768L5719 768Q5844 768 5938.5000 804Q6033 840 6078 901.5000Q6123 963 6140 1066L6140 1066L5964 1090Q5952 1008 5894.5000 962Q5837 916 5732 916L5732 916Q5608 916 5555 957Q5502 998 5502 1053L5502 1053Q5502 1088 5524 1116L5524 1116Q5546 1145 5593 1164L5593 1164Q5620 1174 5752 1210L5752 1210Q5943 1261 6018.5000 1293.5000Q6094 1326 6137 1388Q6180 1450 6180 1542L6180 1542Q6180 1632 6127.5000 1711.5000Q6075 1791 5976 1834.5000Q5877 1878 5752 1878L5752 1878Q5545 1878 5436.5000 1792Q5328 1706 5298 1537Z"/>
  <path d=""/>
  <path d="M7656 1465L7656 1465L7833 1488Q7804 1671 7684.5000 1774.5000Q7565 1878 7391 1878L7391 1878Q7173 1878 7040.5000 1735.5000Q6908 1593 6908 1327L6908 1327Q6908 1155 6965 1026Q7022 897 7138.5000 832.5000Q7255 768 7392 768L7392 768Q7565 768 7675 855.5000Q7785 943 7816 1104L7816 1104L7641 1131Q7616 1024 7552.5000 970Q7489 916 7399 916L7399 916Q7263 916 7178 1013.5000Q7093 1111 7093 1322L7093 1322Q7093 1536 7175 1633Q7257 1730 7389 1730L7389 1730Q7495 1730 7566 1665Q7637 1600 7656 1465Z"/>
  <path d="M8165 1854L7985 1854L7985 792L8147 792L8147 953Q8209 840 8261.5000 804Q8314 768 8377 768L8377 768Q8468 768 8562 826L8562 826L8500 993Q8434 954 8368 954L8368 954Q8309 954 8262 989.5000Q8215 1025 8195 1088L8195 1088Q8165 1184 8165 1298L8165 1298L8165 1854Z"/>
  <path d="M9362 1723L9362 1723Q9262 1808 9169.5000 1843Q9077 1878 8971 1878L8971 1878Q8796 1878 8702 1792.5000Q8608 1707 8608 1574L8608 1574Q8608 1496 8643.5000 1431.5000Q8679 1367 8736.5000 1328Q8794 1289 8866 1269L8866 1269Q8919 1255 9026 1242L9026 1242Q9244 1216 9347 1180L9347 1180Q9348 1143 9348 1133L9348 1133Q9348 1023 9297 978L9297 978Q9228 917 9092 917L9092 917Q8965 917 8904.5000 961.5000Q8844 1006 8815 1119L8815 1119L8639 1095Q8663 982 8718 912.5000Q8773 843 8877 805.5000Q8981 768 9118 768L9118 768Q9254 768 9339 800Q9424 832 9464 880.5000Q9504 929 9520 1003L9520 1003Q9529 1049 9529 1169L9529 1169L9529 1409Q9529 1660 9540.5000 1726.5000Q9552 1793 9586 1854L9586 1854L9398 1854Q9370 1798 9362 1723ZM9347 1387L9347 1321Q9249 1361 9053 1389L9053 1389Q8942 1405 8896 1425Q8850 1445 8825 1483.5000Q8800 1522 8800 1569L8800 1569Q8800 1641 8854.5000 1689Q8909 1737 9014 1737L9014 1737Q9118 1737 9199 1691.5000Q9280 1646 9318 1567L9318 1567Q9347 1506 9347 1387L9347 1387Z"/>
  <path d="M9736 1537L9736 1537L9914 1509Q9929 1616 9997.5000 1673Q10066 1730 10189 1730L10189 1730Q10313 1730 10373 1679.5000Q10433 1629 10433 1561L10433 1561Q10433 1500 10380 1465L10380 1465Q10343 1441 10196 1404L10196 1404Q9998 1354 9921.5000 1317.5000Q9845 1281 9805.5000 1216.5000Q9766 1152 9766 1074L9766 1074Q9766 1003 9798.5000 942.5000Q9831 882 9887 842L9887 842Q9929 811 10001.5000 789.5000Q10074 768 10157 768L10157 768Q10282 768 10376.5000 804Q10471 840 10516 901.5000Q10561 963 10578 1066L10578 1066L10402 1090Q10390 1008 10332.5000 962Q10275 916 10170 916L10170 916Q10046 916 9993 957Q9940 998 9940 1053L9940 1053Q9940 1088 9962 1116L9962 1116Q9984 1145 10031 1164L10031 1164Q10058 1174 10190 1210L10190 1210Q10381 1261 10456.5000 1293.5000Q10532 1326 10575 1388Q10618 1450 10618 1542L10618 1542Q10618 1632 10565.5000 1711.5000Q10513 1791 10414 1834.5000Q10315 1878 10190 1878L10190 1878Q9983 1878 9874.5000 1792Q9766 1706 9736 1537Z"/>
  <path d="M11012 1854L10832 1854L10832 388L11012 388L11012 914Q11138 768 11330 768L11330 768Q11448 768 11535 814.5000Q11622 861 11659.5000 943Q11697 1025 11697 1181L11697 1181L11697 1854L11517 1854L11517 1181Q11517 1046 11458.5000 984.5000Q11400 923 11293 923L11293 923Q11213 923 11142.5000 964.5000Q11072 1006 11042 1077Q11012 1148 11012 1273L11012 1273L11012 1854Z"/>
</svg>