<svg xmlns="http://www.w3.org/2000/svg" viewBox="-76 0 3023 2512">
  <path d="M573 1505L573 1505L573 1574Q513 1634 482 1661Q451 1688 397 1716L397 1716Q397 1807 388 1871Q379 1935 348 2005.5000Q317 2076 252 2160L252 2160Q188 2243 126 2287.5000Q64 2332 29 2332L29 2332Q-10 2332-43 2268Q-76 2204-76 2109L-76 2109Q-76 2018-45 1917Q-14 1816 51 1656L51 1656Q2 1592 2 1529L2 1529Q2 1478 28 1451Q54 1424 102 1402L102 1402Q137 1347 168.5000 1308.5000Q200 1270 254 1206L254 1206Q358 950 498 706L498 706Q537 638 554 614.5000Q571 591 590 591L590 591Q607 591 620 616Q633 641 633 681L633 681Q633 730 622.5000 771Q612 812 592.5000 853.5000Q573 895 538.5000 953Q504 1011 496 1025L496 1025Q446 1113 383 1220Q320 1327 283.5000 1389Q247 1451 231 1482L231 1482Q285 1529 316.5000 1563Q348 1597 371 1644L371 1644Q405 1631 433 1613Q461 1595 499 1563.5000Q537 1532 573 1505ZM274 1773L274 1773L272 1752Q244 1755 227 1753.5000Q210 1752 187.5000 1745Q165 1738 152.5000 1732Q140 1726 125 1720L125 1720Q49 1906 49 2029L49 2029Q49 2090 67.5000 2133Q86 2176 111 2176L111 2176Q137 2176 176.5000 2130Q216 2084 245 1994Q274 1904 274 1773Z"/>
  <path d="M561 1582L561 1582L561 1517Q615 1453 643 1408L643 1408Q611 1397 596.5000 1381Q582 1365 582 1333L582 1333Q582 1297 612 1242Q642 1187 686 1139Q730 1091 766 1077L766 1077Q780 1070 793 1070L793 1070Q813 1070 813 1089L813 1089Q813 1106 782 1158L782 1158Q988 1126 1042 1126L1042 1126Q1063 1126 1071 1130L1071 1130Q1088 1139 1099 1172Q1110 1205 1110 1238L1110 1238Q1110 1259 1091.5000 1283.5000Q1073 1308 1028 1355L1028 1355Q975 1412 939 1479Q903 1546 903 1580L903 1580Q903 1627 961 1627L961 1627Q1022 1627 1173 1503L1173 1503L1173 1570Q1090 1657 1036 1707Q982 1757 936 1786.5000Q890 1816 854 1816L854 1816Q812 1816 784 1777.5000Q756 1739 756 1666L756 1666Q756 1623 778 1568Q800 1513 842.5000 1448.5000Q885 1384 938 1320L938 1320Q910 1326 875 1332.5000Q840 1339 801 1346Q762 1353 741 1357L741 1357Q679 1481 561 1582Z"/>
  <path d="M1812 1503L1812 1503L1812 1570Q1746 1630 1706 1650Q1666 1670 1591 1666L1591 1666Q1461 1820 1362 1820L1362 1820Q1306 1820 1260 1783Q1214 1746 1186.5000 1682Q1159 1618 1159 1539L1159 1539Q1159 1475 1201.5000 1397Q1244 1319 1311.5000 1251.5000Q1379 1184 1456 1142.5000Q1533 1101 1599 1101L1599 1101Q1646 1101 1673 1115.5000Q1700 1130 1700 1156L1700 1156Q1700 1176 1677 1202L1677 1202Q1715 1210 1729 1228.5000Q1743 1247 1743 1296L1743 1296Q1743 1344 1720.5000 1417Q1698 1490 1659 1554L1659 1554L1677 1572L1692 1572Q1709 1572 1725.5000 1563.5000Q1742 1555 1755 1545.5000Q1768 1536 1812 1503ZM1606 1240L1606 1240Q1523 1290 1464 1330.5000Q1405 1371 1364 1412.5000Q1323 1454 1309 1496L1309 1496Q1284 1608 1284 1617L1284 1617Q1284 1683 1376 1683L1376 1683Q1419 1683 1520 1609L1520 1609Q1503 1562 1503 1519L1503 1519Q1503 1456 1529 1390.5000Q1555 1325 1606 1240Z"/>
  <path d="M2267 1642L2267 1642Q2405 1520 2504 1429.5000Q2603 1339 2659.5000 1287Q2716 1235 2759 1199Q2802 1163 2814 1163L2814 1163Q2837 1162 2858 1210.5000Q2879 1259 2879 1288L2879 1288Q2879 1307 2815.5000 1377.5000Q2752 1448 2720.5000 1490Q2689 1532 2689 1578L2689 1578Q2689 1605 2707 1621.5000Q2725 1638 2750 1638L2750 1638Q2779 1638 2819.5000 1608Q2860 1578 2947 1501L2947 1501L2947 1572Q2860 1654 2789 1713.5000Q2718 1773 2665.5000 1802.5000Q2613 1832 2578 1832L2578 1832Q2547 1832 2526 1808.5000Q2505 1785 2505 1750L2505 1750Q2505 1716 2517 1681Q2529 1646 2554 1598Q2579 1550 2620 1482.5000Q2661 1415 2695 1359L2695 1359Q2593 1442 2514 1519Q2435 1596 2385 1653.5000Q2335 1711 2306 1744L2306 1744Q2250 1806 2202 1806L2202 1806Q2150 1806 2150 1732L2150 1732Q2150 1702 2189 1624.5000Q2228 1547 2300 1427L2300 1427Q2306 1419 2306 1402L2306 1402Q2306 1382 2286 1382L2286 1382Q2264 1382 2222.5000 1423.5000Q2181 1465 2062 1597L2062 1597Q2029 1634 1987.5000 1693.5000Q1946 1753 1928 1773Q1910 1793 1892 1793L1892 1793Q1856 1793 1825 1729Q1794 1665 1794 1580L1794 1580Q1794 1518 1814.5000 1473Q1835 1428 1878 1361L1878 1361Q1945 1264 1987.5000 1222.5000Q2030 1181 2077 1181L2077 1181Q2106 1181 2126 1192.5000Q2146 1204 2146 1224L2146 1224Q2146 1245 2109.5000 1293Q2073 1341 2017 1392L2017 1392Q1987 1421 1960 1463.5000Q1933 1506 1933 1525L1933 1525Q1933 1552 1954 1552L1954 1552Q1971 1552 2040 1482Q2109 1412 2191.5000 1329.5000Q2274 1247 2344.5000 1192.5000Q2415 1138 2464 1138L2464 1138Q2494 1138 2513.5000 1160.5000Q2533 1183 2533 1216L2533 1216Q2533 1238 2503 1295.5000Q2473 1353 2415.5000 1437.5000Q2358 1522 2267 1642Z"/>
</svg>